<?xml version="1.0" encoding="UTF-8" standalone="no"?>
<!DOCTYPE svg PUBLIC "-//W3C//DTD SVG 1.1//EN"
 "http://www.w3.org/Graphics/SVG/1.1/DTD/svg11.dtd">
<!-- Generated by graphviz version 2.47.0 (20210316.0004)
 -->
<!-- Title: dependencies Pages: 1 -->
<svg width="1950pt" height="284pt"
 viewBox="0.00 0.00 1950.00 284.00" xmlns="http://www.w3.org/2000/svg" xmlns:xlink="http://www.w3.org/1999/xlink">
<g id="graph0" class="graph" transform="scale(1 1) rotate(0) translate(4 280)">
<title>dependencies</title>
<polygon fill="white" stroke="transparent" points="-4,4 -4,-280 1946,-280 1946,4 -4,4"/>
<text text-anchor="start" x="950.01" y="-42.4" font-family="Times-12" font-weight="bold" font-size="14.00">Legend</text>
<polygon fill="#ffffb3" stroke="transparent" points="737,-10 737,-30 757,-30 757,-10 737,-10"/>
<text text-anchor="start" x="760.63" y="-15.4" font-family="Times-12" font-size="14.00"> &#160;Declarations</text>
<polygon fill="#8dd3c7" stroke="transparent" points="850,-10 850,-30 870,-30 870,-10 850,-10"/>
<text text-anchor="start" x="873.73" y="-15.4" font-family="Times-12" font-size="14.00"> &#160;Module</text>
<polygon fill="#80b1d3" stroke="transparent" points="936,-10 936,-30 956,-30 956,-10 936,-10"/>
<text text-anchor="start" x="959.78" y="-15.4" font-family="Times-12" font-size="14.00"> &#160;Bootstrap</text>
<polygon fill="#fdb462" stroke="transparent" points="1033,-10 1033,-30 1053,-30 1053,-10 1033,-10"/>
<text text-anchor="start" x="1056.67" y="-15.4" font-family="Times-12" font-size="14.00"> &#160;Providers</text>
<polygon fill="#fb8072" stroke="transparent" points="1129,-10 1129,-30 1149,-30 1149,-10 1129,-10"/>
<text text-anchor="start" x="1152.73" y="-15.4" font-family="Times-12" font-size="14.00"> &#160;Exports</text>
<g id="clust1" class="cluster">
<title>cluster_AppModule</title>
<polygon fill="none" stroke="black" stroke-dasharray="1,5" points="8,-70 8,-268 1934,-268 1934,-70 8,-70"/>
</g>
<g id="clust16" class="cluster">
<title>cluster_AppModule_providers</title>
<polygon fill="none" stroke="black" points="1740,-78 1740,-130 1926,-130 1926,-78 1740,-78"/>
</g>
<g id="clust13" class="cluster">
<title>cluster_AppModule_imports</title>
<polygon fill="none" stroke="black" points="1588,-78 1588,-130 1732,-130 1732,-78 1588,-78"/>
</g>
<g id="clust15" class="cluster">
<title>cluster_AppModule_bootstrap</title>
<polygon fill="none" stroke="black" points="978,-208 978,-260 1102,-260 1102,-208 978,-208"/>
</g>
<g id="clust2" class="cluster">
<title>cluster_AppModule_declarations</title>
<polygon fill="none" stroke="black" points="16,-78 16,-130 1580,-130 1580,-78 16,-78"/>
</g>
<!-- AppComponent -->
<g id="node1" class="node">
<title>AppComponent</title>
<polygon fill="#ffffb3" stroke="black" points="1571.94,-122 1466.06,-122 1466.06,-86 1571.94,-86 1571.94,-122"/>
<text text-anchor="middle" x="1519" y="-99.8" font-family="Times,serif" font-size="14.00">AppComponent</text>
</g>
<!-- AppModule -->
<g id="node11" class="node">
<title>AppModule</title>
<polygon fill="#8dd3c7" stroke="black" points="1081.66,-187 1078.66,-191 1057.66,-191 1054.66,-187 998.34,-187 998.34,-151 1081.66,-151 1081.66,-187"/>
<text text-anchor="middle" x="1040" y="-164.8" font-family="Times,serif" font-size="14.00">AppModule</text>
</g>
<!-- AppComponent&#45;&gt;AppModule -->
<g id="edge1" class="edge">
<title>AppComponent&#45;&gt;AppModule</title>
<path fill="none" stroke="black" d="M1519,-122.11C1519,-141.34 1519,-169 1519,-169 1519,-169 1091.67,-169 1091.67,-169"/>
<polygon fill="black" stroke="black" points="1091.67,-165.5 1081.67,-169 1091.67,-172.5 1091.67,-165.5"/>
</g>
<!-- FooterComponent -->
<g id="node2" class="node">
<title>FooterComponent</title>
<polygon fill="#ffffb3" stroke="black" points="1447.88,-122 1330.12,-122 1330.12,-86 1447.88,-86 1447.88,-122"/>
<text text-anchor="middle" x="1389" y="-99.8" font-family="Times,serif" font-size="14.00">FooterComponent</text>
</g>
<!-- FooterComponent&#45;&gt;AppModule -->
<g id="edge2" class="edge">
<title>FooterComponent&#45;&gt;AppModule</title>
<path fill="none" stroke="black" d="M1389,-122.02C1389,-139.37 1389,-163 1389,-163 1389,-163 1091.75,-163 1091.75,-163"/>
<polygon fill="black" stroke="black" points="1091.75,-159.5 1081.75,-163 1091.75,-166.5 1091.75,-159.5"/>
</g>
<!-- HeaderComponent -->
<g id="node3" class="node">
<title>HeaderComponent</title>
<polygon fill="#ffffb3" stroke="black" points="1311.74,-122 1190.26,-122 1190.26,-86 1311.74,-86 1311.74,-122"/>
<text text-anchor="middle" x="1251" y="-99.8" font-family="Times,serif" font-size="14.00">HeaderComponent</text>
</g>
<!-- HeaderComponent&#45;&gt;AppModule -->
<g id="edge3" class="edge">
<title>HeaderComponent&#45;&gt;AppModule</title>
<path fill="none" stroke="black" d="M1251,-122.24C1251,-137.57 1251,-157 1251,-157 1251,-157 1091.69,-157 1091.69,-157"/>
<polygon fill="black" stroke="black" points="1091.69,-153.5 1081.69,-157 1091.69,-160.5 1091.69,-153.5"/>
</g>
<!-- HomeComponent -->
<g id="node4" class="node">
<title>HomeComponent</title>
<polygon fill="#ffffb3" stroke="black" points="1171.55,-122 1056.45,-122 1056.45,-86 1171.55,-86 1171.55,-122"/>
<text text-anchor="middle" x="1114" y="-99.8" font-family="Times,serif" font-size="14.00">HomeComponent</text>
</g>
<!-- HomeComponent&#45;&gt;AppModule -->
<g id="edge4" class="edge">
<title>HomeComponent&#45;&gt;AppModule</title>
<path fill="none" stroke="black" d="M1069.03,-122.11C1069.03,-122.11 1069.03,-140.99 1069.03,-140.99"/>
<polygon fill="black" stroke="black" points="1065.53,-140.99 1069.03,-150.99 1072.53,-140.99 1065.53,-140.99"/>
</g>
<!-- LoginPageComponent -->
<g id="node5" class="node">
<title>LoginPageComponent</title>
<polygon fill="#ffffb3" stroke="black" points="1037.99,-122 896.01,-122 896.01,-86 1037.99,-86 1037.99,-122"/>
<text text-anchor="middle" x="967" y="-99.8" font-family="Times,serif" font-size="14.00">LoginPageComponent</text>
</g>
<!-- LoginPageComponent&#45;&gt;AppModule -->
<g id="edge5" class="edge">
<title>LoginPageComponent&#45;&gt;AppModule</title>
<path fill="none" stroke="black" d="M1018.08,-122.11C1018.08,-122.11 1018.08,-140.99 1018.08,-140.99"/>
<polygon fill="black" stroke="black" points="1014.58,-140.99 1018.08,-150.99 1021.58,-140.99 1014.58,-140.99"/>
</g>
<!-- NotFoundPageComponent -->
<g id="node6" class="node">
<title>NotFoundPageComponent</title>
<polygon fill="#ffffb3" stroke="black" points="877.82,-122 712.18,-122 712.18,-86 877.82,-86 877.82,-122"/>
<text text-anchor="middle" x="795" y="-99.8" font-family="Times,serif" font-size="14.00">NotFoundPageComponent</text>
</g>
<!-- NotFoundPageComponent&#45;&gt;AppModule -->
<g id="edge6" class="edge">
<title>NotFoundPageComponent&#45;&gt;AppModule</title>
<path fill="none" stroke="black" d="M795,-122.24C795,-137.57 795,-157 795,-157 795,-157 988.16,-157 988.16,-157"/>
<polygon fill="black" stroke="black" points="988.16,-160.5 998.16,-157 988.16,-153.5 988.16,-160.5"/>
</g>
<!-- PhotosPageComponent -->
<g id="node7" class="node">
<title>PhotosPageComponent</title>
<polygon fill="#ffffb3" stroke="black" points="694.16,-122 547.84,-122 547.84,-86 694.16,-86 694.16,-122"/>
<text text-anchor="middle" x="621" y="-99.8" font-family="Times,serif" font-size="14.00">PhotosPageComponent</text>
</g>
<!-- PhotosPageComponent&#45;&gt;AppModule -->
<g id="edge7" class="edge">
<title>PhotosPageComponent&#45;&gt;AppModule</title>
<path fill="none" stroke="black" d="M621,-122.02C621,-139.37 621,-163 621,-163 621,-163 988.29,-163 988.29,-163"/>
<polygon fill="black" stroke="black" points="988.29,-166.5 998.29,-163 988.29,-159.5 988.29,-166.5"/>
</g>
<!-- SectionHeaderComponent -->
<g id="node8" class="node">
<title>SectionHeaderComponent</title>
<polygon fill="#ffffb3" stroke="black" points="529.74,-122 366.26,-122 366.26,-86 529.74,-86 529.74,-122"/>
<text text-anchor="middle" x="448" y="-99.8" font-family="Times,serif" font-size="14.00">SectionHeaderComponent</text>
</g>
<!-- SectionHeaderComponent&#45;&gt;AppModule -->
<g id="edge8" class="edge">
<title>SectionHeaderComponent&#45;&gt;AppModule</title>
<path fill="none" stroke="black" d="M448,-122.11C448,-141.34 448,-169 448,-169 448,-169 987.9,-169 987.9,-169"/>
<polygon fill="black" stroke="black" points="987.9,-172.5 997.9,-169 987.9,-165.5 987.9,-172.5"/>
</g>
<!-- SignupPageComponent -->
<g id="node9" class="node">
<title>SignupPageComponent</title>
<polygon fill="#ffffb3" stroke="black" points="348.22,-122 199.78,-122 199.78,-86 348.22,-86 348.22,-122"/>
<text text-anchor="middle" x="274" y="-99.8" font-family="Times,serif" font-size="14.00">SignupPageComponent</text>
</g>
<!-- SignupPageComponent&#45;&gt;AppModule -->
<g id="edge9" class="edge">
<title>SignupPageComponent&#45;&gt;AppModule</title>
<path fill="none" stroke="black" d="M274,-122.28C274,-143.32 274,-175 274,-175 274,-175 988.27,-175 988.27,-175"/>
<polygon fill="black" stroke="black" points="988.27,-178.5 998.27,-175 988.27,-171.5 988.27,-178.5"/>
</g>
<!-- TitleEditPageComponent -->
<g id="node10" class="node">
<title>TitleEditPageComponent</title>
<polygon fill="#ffffb3" stroke="black" points="182.32,-122 23.68,-122 23.68,-86 182.32,-86 182.32,-122"/>
<text text-anchor="middle" x="103" y="-99.8" font-family="Times,serif" font-size="14.00">TitleEditPageComponent</text>
</g>
<!-- TitleEditPageComponent&#45;&gt;AppModule -->
<g id="edge10" class="edge">
<title>TitleEditPageComponent&#45;&gt;AppModule</title>
<path fill="none" stroke="black" d="M103,-122.25C103,-145.02 103,-181 103,-181 103,-181 988.22,-181 988.22,-181"/>
<polygon fill="black" stroke="black" points="988.22,-184.5 998.22,-181 988.22,-177.5 988.22,-184.5"/>
</g>
<!-- AppComponent  -->
<g id="node13" class="node">
<title>AppComponent </title>
<polygon fill="#80b1d3" stroke="black" points="1094.44,-252 985.56,-252 985.56,-216 1094.44,-216 1094.44,-252"/>
<text text-anchor="middle" x="1040" y="-229.8" font-family="Times,serif" font-size="14.00">AppComponent </text>
</g>
<!-- AppModule&#45;&gt;AppComponent  -->
<g id="edge12" class="edge">
<title>AppModule&#45;&gt;AppComponent </title>
<path fill="none" stroke="black" stroke-dasharray="1,5" d="M1040,-187.11C1040,-187.11 1040,-205.99 1040,-205.99"/>
<polygon fill="black" stroke="black" points="1036.5,-205.99 1040,-215.99 1043.5,-205.99 1036.5,-205.99"/>
</g>
<!-- AppRoutingModule -->
<g id="node12" class="node">
<title>AppRoutingModule</title>
<polygon fill="#8dd3c7" stroke="black" points="1724.27,-122 1721.27,-126 1700.27,-126 1697.27,-122 1595.73,-122 1595.73,-86 1724.27,-86 1724.27,-122"/>
<text text-anchor="middle" x="1660" y="-99.8" font-family="Times,serif" font-size="14.00">AppRoutingModule</text>
</g>
<!-- AppRoutingModule&#45;&gt;AppModule -->
<g id="edge11" class="edge">
<title>AppRoutingModule&#45;&gt;AppModule</title>
<path fill="none" stroke="black" d="M1660,-122.28C1660,-143.32 1660,-175 1660,-175 1660,-175 1092.13,-175 1092.13,-175"/>
<polygon fill="black" stroke="black" points="1092.13,-171.5 1082.13,-175 1092.13,-178.5 1092.13,-171.5"/>
</g>
<!-- Loadinginterceptor -->
<g id="node14" class="node">
<title>Loadinginterceptor</title>
<ellipse fill="#fdb462" stroke="black" cx="1833" cy="-104" rx="85.09" ry="18"/>
<text text-anchor="middle" x="1833" y="-99.8" font-family="Times,serif" font-size="14.00">Loadinginterceptor</text>
</g>
<!-- Loadinginterceptor&#45;&gt;AppModule -->
<g id="edge13" class="edge">
<title>Loadinginterceptor&#45;&gt;AppModule</title>
<path fill="none" stroke="black" d="M1833,-122.25C1833,-145.02 1833,-181 1833,-181 1833,-181 1091.8,-181 1091.8,-181"/>
<polygon fill="black" stroke="black" points="1091.8,-177.5 1081.8,-181 1091.8,-184.5 1091.8,-177.5"/>
</g>
</g>
</svg>
