<?xml version="1.0" encoding="UTF-8" standalone="no"?>
<!DOCTYPE svg PUBLIC "-//W3C//DTD SVG 1.1//EN"
 "http://www.w3.org/Graphics/SVG/1.1/DTD/svg11.dtd">
<!-- Generated by graphviz version 2.47.0 (20210316.0004)
 -->
<!-- Title: dependencies Pages: 1 -->
<svg width="1950pt" height="284pt"
 viewBox="0.00 0.00 1950.00 284.00" xmlns="http://www.w3.org/2000/svg" xmlns:xlink="http://www.w3.org/1999/xlink">
<g id="graph0" class="graph" transform="scale(1 1) rotate(0) translate(4 280)">
<title>dependencies</title>
<polygon fill="white" stroke="transparent" points="-4,4 -4,-280 1946,-280 1946,4 -4,4"/>
<text text-anchor="start" x="950.01" y="-42.4" font-family="Times-12" font-weight="bold" font-size="14.00">Legend</text>
<polygon fill="#ffffb3" stroke="transparent" points="737,-10 737,-30 757,-30 757,-10 737,-10"/>
<text text-anchor="start" x="760.63" y="-15.4" font-family="Times-12" font-size="14.00"> &#160;Declarations</text>
<polygon fill="#8dd3c7" stroke="transparent" points="850,-10 850,-30 870,-30 870,-10 850,-10"/>
<text text-anchor="start" x="873.73" y="-15.4" font-family="Times-12" font-size="14.00"> &#160;Module</text>
<polygon fill="#80b1d3" stroke="transparent" points="936,-10 936,-30 956,-30 956,-10 936,-10"/>
<text text-anchor="start" x="959.78" y="-15.4" font-family="Times-12" font-size="14.00"> &#160;Bootstrap</text>
<polygon fill="#fdb462" stroke="transparent" points="1033,-10 1033,-30 1053,-30 1053,-10 1033,-10"/>
<text text-anchor="start" x="1056.67" y="-15.4" font-family="Times-12" font-size="14.00"> &#160;Providers</text>
<polygon fill="#fb8072" stroke="transparent" points="1129,-10 1129,-30 1149,-30 1149,-10 1129,-10"/>
<text text-anchor="start" x="1152.73" y="-15.4" font-family="Times-12" font-size="14.00"> &#160;Exports</text>
<g id="clust1" class="cluster">
<title>cluster_AppModule</title>
<polygon fill="none" stroke="black" stroke-dasharray="1,5" points="8,-70 8,-268 1934,-268 1934,-70 8,-70"/>
</g>
<g id="clust2" class="cluster">
<title>cluster_AppModule_declarations</title>
<polygon fill="none" stroke="black" points="362,-78 362,-130 1926,-130 1926,-78 362,-78"/>
</g>
<g id="clust13" class="cluster">
<title>cluster_AppModule_imports</title>
<polygon fill="none" stroke="black" points="210,-78 210,-130 354,-130 354,-78 210,-78"/>
</g>
<g id="clust15" class="cluster">
<title>cluster_AppModule_bootstrap</title>
<polygon fill="none" stroke="black" points="992,-208 992,-260 1116,-260 1116,-208 992,-208"/>
</g>
<g id="clust16" class="cluster">
<title>cluster_AppModule_providers</title>
<polygon fill="none" stroke="black" points="16,-78 16,-130 202,-130 202,-78 16,-78"/>
</g>
<!-- AppComponent -->
<g id="node1" class="node">
<title>AppComponent</title>
<polygon fill="#ffffb3" stroke="black" points="1917.94,-122 1812.06,-122 1812.06,-86 1917.94,-86 1917.94,-122"/>
<text text-anchor="middle" x="1865" y="-99.8" font-family="Times,serif" font-size="14.00">AppComponent</text>
</g>
<!-- AppModule -->
<g id="node11" class="node">
<title>AppModule</title>
<polygon fill="#8dd3c7" stroke="black" points="1095.66,-187 1092.66,-191 1071.66,-191 1068.66,-187 1012.34,-187 1012.34,-151 1095.66,-151 1095.66,-187"/>
<text text-anchor="middle" x="1054" y="-164.8" font-family="Times,serif" font-size="14.00">AppModule</text>
</g>
<!-- AppComponent&#45;&gt;AppModule -->
<g id="edge1" class="edge">
<title>AppComponent&#45;&gt;AppModule</title>
<path fill="none" stroke="black" d="M1865,-122.25C1865,-145.02 1865,-181 1865,-181 1865,-181 1105.9,-181 1105.9,-181"/>
<polygon fill="black" stroke="black" points="1105.9,-177.5 1095.9,-181 1105.9,-184.5 1105.9,-177.5"/>
</g>
<!-- FooterComponent -->
<g id="node2" class="node">
<title>FooterComponent</title>
<polygon fill="#ffffb3" stroke="black" points="1793.88,-122 1676.12,-122 1676.12,-86 1793.88,-86 1793.88,-122"/>
<text text-anchor="middle" x="1735" y="-99.8" font-family="Times,serif" font-size="14.00">FooterComponent</text>
</g>
<!-- FooterComponent&#45;&gt;AppModule -->
<g id="edge2" class="edge">
<title>FooterComponent&#45;&gt;AppModule</title>
<path fill="none" stroke="black" d="M1735,-122.28C1735,-143.32 1735,-175 1735,-175 1735,-175 1105.83,-175 1105.83,-175"/>
<polygon fill="black" stroke="black" points="1105.83,-171.5 1095.83,-175 1105.83,-178.5 1105.83,-171.5"/>
</g>
<!-- HeaderComponent -->
<g id="node3" class="node">
<title>HeaderComponent</title>
<polygon fill="#ffffb3" stroke="black" points="1657.74,-122 1536.26,-122 1536.26,-86 1657.74,-86 1657.74,-122"/>
<text text-anchor="middle" x="1597" y="-99.8" font-family="Times,serif" font-size="14.00">HeaderComponent</text>
</g>
<!-- HeaderComponent&#45;&gt;AppModule -->
<g id="edge3" class="edge">
<title>HeaderComponent&#45;&gt;AppModule</title>
<path fill="none" stroke="black" d="M1597,-122.11C1597,-141.34 1597,-169 1597,-169 1597,-169 1105.71,-169 1105.71,-169"/>
<polygon fill="black" stroke="black" points="1105.71,-165.5 1095.71,-169 1105.71,-172.5 1105.71,-165.5"/>
</g>
<!-- HomeComponent -->
<g id="node4" class="node">
<title>HomeComponent</title>
<polygon fill="#ffffb3" stroke="black" points="1517.55,-122 1402.45,-122 1402.45,-86 1517.55,-86 1517.55,-122"/>
<text text-anchor="middle" x="1460" y="-99.8" font-family="Times,serif" font-size="14.00">HomeComponent</text>
</g>
<!-- HomeComponent&#45;&gt;AppModule -->
<g id="edge4" class="edge">
<title>HomeComponent&#45;&gt;AppModule</title>
<path fill="none" stroke="black" d="M1460,-122.02C1460,-139.37 1460,-163 1460,-163 1460,-163 1105.92,-163 1105.92,-163"/>
<polygon fill="black" stroke="black" points="1105.92,-159.5 1095.92,-163 1105.92,-166.5 1105.92,-159.5"/>
</g>
<!-- LoginPageComponent -->
<g id="node5" class="node">
<title>LoginPageComponent</title>
<polygon fill="#ffffb3" stroke="black" points="1383.99,-122 1242.01,-122 1242.01,-86 1383.99,-86 1383.99,-122"/>
<text text-anchor="middle" x="1313" y="-99.8" font-family="Times,serif" font-size="14.00">LoginPageComponent</text>
</g>
<!-- LoginPageComponent&#45;&gt;AppModule -->
<g id="edge5" class="edge">
<title>LoginPageComponent&#45;&gt;AppModule</title>
<path fill="none" stroke="black" d="M1313,-122.24C1313,-137.57 1313,-157 1313,-157 1313,-157 1105.9,-157 1105.9,-157"/>
<polygon fill="black" stroke="black" points="1105.9,-153.5 1095.9,-157 1105.9,-160.5 1105.9,-153.5"/>
</g>
<!-- NotFoundPageComponent -->
<g id="node6" class="node">
<title>NotFoundPageComponent</title>
<polygon fill="#ffffb3" stroke="black" points="1223.82,-122 1058.18,-122 1058.18,-86 1223.82,-86 1223.82,-122"/>
<text text-anchor="middle" x="1141" y="-99.8" font-family="Times,serif" font-size="14.00">NotFoundPageComponent</text>
</g>
<!-- NotFoundPageComponent&#45;&gt;AppModule -->
<g id="edge6" class="edge">
<title>NotFoundPageComponent&#45;&gt;AppModule</title>
<path fill="none" stroke="black" d="M1077.08,-122.11C1077.08,-122.11 1077.08,-140.99 1077.08,-140.99"/>
<polygon fill="black" stroke="black" points="1073.58,-140.99 1077.08,-150.99 1080.58,-140.99 1073.58,-140.99"/>
</g>
<!-- PhotosPageComponent -->
<g id="node7" class="node">
<title>PhotosPageComponent</title>
<polygon fill="#ffffb3" stroke="black" points="1040.16,-122 893.84,-122 893.84,-86 1040.16,-86 1040.16,-122"/>
<text text-anchor="middle" x="967" y="-99.8" font-family="Times,serif" font-size="14.00">PhotosPageComponent</text>
</g>
<!-- PhotosPageComponent&#45;&gt;AppModule -->
<g id="edge7" class="edge">
<title>PhotosPageComponent&#45;&gt;AppModule</title>
<path fill="none" stroke="black" d="M1026.25,-122.11C1026.25,-122.11 1026.25,-140.99 1026.25,-140.99"/>
<polygon fill="black" stroke="black" points="1022.75,-140.99 1026.25,-150.99 1029.75,-140.99 1022.75,-140.99"/>
</g>
<!-- SectionHeaderComponent -->
<g id="node8" class="node">
<title>SectionHeaderComponent</title>
<polygon fill="#ffffb3" stroke="black" points="875.74,-122 712.26,-122 712.26,-86 875.74,-86 875.74,-122"/>
<text text-anchor="middle" x="794" y="-99.8" font-family="Times,serif" font-size="14.00">SectionHeaderComponent</text>
</g>
<!-- SectionHeaderComponent&#45;&gt;AppModule -->
<g id="edge8" class="edge">
<title>SectionHeaderComponent&#45;&gt;AppModule</title>
<path fill="none" stroke="black" d="M794,-122.24C794,-137.57 794,-157 794,-157 794,-157 1002.23,-157 1002.23,-157"/>
<polygon fill="black" stroke="black" points="1002.23,-160.5 1012.23,-157 1002.23,-153.5 1002.23,-160.5"/>
</g>
<!-- SignupPageComponent -->
<g id="node9" class="node">
<title>SignupPageComponent</title>
<polygon fill="#ffffb3" stroke="black" points="694.22,-122 545.78,-122 545.78,-86 694.22,-86 694.22,-122"/>
<text text-anchor="middle" x="620" y="-99.8" font-family="Times,serif" font-size="14.00">SignupPageComponent</text>
</g>
<!-- SignupPageComponent&#45;&gt;AppModule -->
<g id="edge9" class="edge">
<title>SignupPageComponent&#45;&gt;AppModule</title>
<path fill="none" stroke="black" d="M620,-122.02C620,-139.37 620,-163 620,-163 620,-163 1001.99,-163 1001.99,-163"/>
<polygon fill="black" stroke="black" points="1001.99,-166.5 1011.99,-163 1001.99,-159.5 1001.99,-166.5"/>
</g>
<!-- TitleEditPageComponent -->
<g id="node10" class="node">
<title>TitleEditPageComponent</title>
<polygon fill="#ffffb3" stroke="black" points="528.32,-122 369.68,-122 369.68,-86 528.32,-86 528.32,-122"/>
<text text-anchor="middle" x="449" y="-99.8" font-family="Times,serif" font-size="14.00">TitleEditPageComponent</text>
</g>
<!-- TitleEditPageComponent&#45;&gt;AppModule -->
<g id="edge10" class="edge">
<title>TitleEditPageComponent&#45;&gt;AppModule</title>
<path fill="none" stroke="black" d="M449,-122.11C449,-141.34 449,-169 449,-169 449,-169 1001.94,-169 1001.94,-169"/>
<polygon fill="black" stroke="black" points="1001.94,-172.5 1011.94,-169 1001.94,-165.5 1001.94,-172.5"/>
</g>
<!-- AppComponent  -->
<g id="node13" class="node">
<title>AppComponent </title>
<polygon fill="#80b1d3" stroke="black" points="1108.44,-252 999.56,-252 999.56,-216 1108.44,-216 1108.44,-252"/>
<text text-anchor="middle" x="1054" y="-229.8" font-family="Times,serif" font-size="14.00">AppComponent </text>
</g>
<!-- AppModule&#45;&gt;AppComponent  -->
<g id="edge12" class="edge">
<title>AppModule&#45;&gt;AppComponent </title>
<path fill="none" stroke="black" stroke-dasharray="1,5" d="M1054,-187.11C1054,-187.11 1054,-205.99 1054,-205.99"/>
<polygon fill="black" stroke="black" points="1050.5,-205.99 1054,-215.99 1057.5,-205.99 1050.5,-205.99"/>
</g>
<!-- AppRoutingModule -->
<g id="node12" class="node">
<title>AppRoutingModule</title>
<polygon fill="#8dd3c7" stroke="black" points="346.27,-122 343.27,-126 322.27,-126 319.27,-122 217.73,-122 217.73,-86 346.27,-86 346.27,-122"/>
<text text-anchor="middle" x="282" y="-99.8" font-family="Times,serif" font-size="14.00">AppRoutingModule</text>
</g>
<!-- AppRoutingModule&#45;&gt;AppModule -->
<g id="edge11" class="edge">
<title>AppRoutingModule&#45;&gt;AppModule</title>
<path fill="none" stroke="black" d="M282,-122.28C282,-143.32 282,-175 282,-175 282,-175 1002.22,-175 1002.22,-175"/>
<polygon fill="black" stroke="black" points="1002.22,-178.5 1012.22,-175 1002.22,-171.5 1002.22,-178.5"/>
</g>
<!-- Loadinginterceptor -->
<g id="node14" class="node">
<title>Loadinginterceptor</title>
<ellipse fill="#fdb462" stroke="black" cx="109" cy="-104" rx="85.09" ry="18"/>
<text text-anchor="middle" x="109" y="-99.8" font-family="Times,serif" font-size="14.00">Loadinginterceptor</text>
</g>
<!-- Loadinginterceptor&#45;&gt;AppModule -->
<g id="edge13" class="edge">
<title>Loadinginterceptor&#45;&gt;AppModule</title>
<path fill="none" stroke="black" d="M109,-122.25C109,-145.02 109,-181 109,-181 109,-181 1002.18,-181 1002.18,-181"/>
<polygon fill="black" stroke="black" points="1002.18,-184.5 1012.18,-181 1002.18,-177.5 1002.18,-184.5"/>
</g>
</g>
</svg>
